<svg width="34" height="34" viewBox="0 0 34 34" fill="none" xmlns="http://www.w3.org/2000/svg">
<path d="M15.1249 26.6667H18.4162V23.3334H15.1249V26.6667ZM16.7706 3.05176e-05C7.68652 3.05176e-05 0.313965 7.46671 0.313965 16.6667C0.313965 25.8667 7.68652 33.3334 16.7706 33.3334C25.8546 33.3334 33.2272 25.8667 33.2272 16.6667C33.2272 7.46671 25.8546 3.05176e-05 16.7706 3.05176e-05ZM16.7706 30.0001C9.51321 30.0001 3.60529 24.0167 3.60529 16.6667C3.60529 9.31671 9.51321 3.33337 16.7706 3.33337C24.0279 3.33337 29.9359 9.31671 29.9359 16.6667C29.9359 24.0167 24.0279 30.0001 16.7706 30.0001ZM16.7706 6.66671C13.1337 6.66671 10.1879 9.65004 10.1879 13.3334H13.4792C13.4792 11.5 14.9603 10 16.7706 10C18.5808 10 20.0619 11.5 20.0619 13.3334C20.0619 16.6667 15.1249 16.25 15.1249 21.6667H18.4162C18.4162 17.9167 23.3532 17.5001 23.3532 13.3334C23.3532 9.65004 20.4075 6.66671 16.7706 6.66671Z" fill="#9C19E0" fill-opacity="0.88"/>
</svg>
