<svg width="450" height="450" viewBox="0 0 450 450" fill="none" xmlns="http://www.w3.org/2000/svg">
<circle cx="225" cy="225" r="221" fill="#9C19E0" stroke="#9C19E0" stroke-width="8"/>
<path d="M100.13 216.481C100.13 207.176 100.13 202.524 101.724 198.882C103.64 194.505 107.134 191.01 111.511 189.094C115.154 187.5 119.806 187.5 129.11 187.5V187.5C138.415 187.5 143.067 187.5 146.709 189.094C151.087 191.01 154.581 194.505 156.497 198.882C158.091 202.524 158.091 207.176 158.091 216.481V302.134C158.091 311.439 158.091 316.091 156.497 319.733C154.581 324.11 151.087 327.605 146.709 329.521C143.067 331.115 138.415 331.115 129.11 331.115V331.115C119.806 331.115 115.154 331.115 111.511 329.521C107.134 327.605 103.64 324.11 101.724 319.733C100.13 316.091 100.13 311.439 100.13 302.134V216.481Z" fill="white"/>
<path d="M200 147.731C200 138.426 200 133.774 201.594 130.132C203.51 125.755 207.004 122.26 211.381 120.344C215.024 118.75 219.676 118.75 228.98 118.75V118.75C238.285 118.75 242.937 118.75 246.579 120.344C250.956 122.26 254.451 125.755 256.367 130.132C257.961 133.774 257.961 138.426 257.961 147.731V300.608C257.961 309.913 257.961 314.565 256.367 318.207C254.451 322.584 250.956 326.079 246.579 327.995C242.937 329.589 238.285 329.589 228.98 329.589V329.589C219.676 329.589 215.024 329.589 211.381 327.995C207.004 326.079 203.51 322.584 201.594 318.207C200 314.565 200 309.913 200 300.608V147.731Z" fill="white"/>
<path d="M300.001 260.231C300.001 250.926 300.001 246.274 301.595 242.632C303.511 238.255 307.005 234.76 311.382 232.844C315.025 231.25 319.677 231.25 328.981 231.25V231.25C338.286 231.25 342.938 231.25 346.58 232.844C350.957 234.76 354.452 238.255 356.368 242.632C357.962 246.274 357.962 250.926 357.962 260.231V304.633C357.962 313.938 357.962 318.59 356.368 322.232C354.452 326.609 350.957 330.104 346.58 332.02C342.938 333.614 338.286 333.614 328.981 333.614V333.614C319.677 333.614 315.025 333.614 311.382 332.02C307.005 330.104 303.511 326.609 301.595 322.232C300.001 318.59 300.001 313.938 300.001 304.633V260.231Z" fill="white"/>
</svg>
