<svg width="503" height="434" viewBox="0 0 503 434" fill="none" xmlns="http://www.w3.org/2000/svg">
<g id="no-data">
<g id="bottom">
<path id="Vector" d="M280.934 108.611L342.787 277.599C342.787 277.599 303.809 286.244 302.072 287.918C300.335 289.591 233.554 318.69 233.552 321.057L163.887 348.366L162.651 348.729L136.211 356.532C134.958 356.9 133.604 356.774 132.447 356.181C131.29 355.589 130.425 354.578 130.041 353.372L51.3914 105.819C51.0086 104.612 51.1391 103.307 51.7541 102.192C52.369 101.077 53.4182 100.244 54.671 99.8737L95.4163 87.8517L213.538 53.0117L254.283 40.9897C254.903 40.8058 255.555 40.7415 256.201 40.8006C256.847 40.8596 257.474 41.0408 258.047 41.3338C258.62 41.6268 259.128 42.0258 259.541 42.508C259.954 42.9902 260.264 43.5461 260.453 44.1439L280.557 107.42L280.934 108.611Z" fill="#F2F2F2"/>
<path id="Vector_2" d="M304.452 107.419L280.223 31.1571C279.819 29.8864 279.16 28.7047 278.283 27.6796C277.406 26.6544 276.328 25.8059 275.11 25.1824C273.892 24.559 272.559 24.1728 271.186 24.0461C269.814 23.9194 268.429 24.0545 267.11 24.4438L209.825 41.3401L91.7096 76.1861L34.4243 93.0883C31.7631 93.8757 29.5349 95.6484 28.2287 98.0172C26.9225 100.386 26.645 103.158 27.4573 105.723L110.269 366.357C110.929 368.428 112.26 370.241 114.068 371.529C115.875 372.818 118.064 373.514 120.312 373.517C121.353 373.517 122.387 373.367 123.381 373.07L162.65 361.489L163.886 361.12V359.876L162.65 360.239L123.017 371.933C120.668 372.623 118.131 372.388 115.962 371.277C113.794 370.167 112.171 368.274 111.449 366.012L28.6434 105.372C28.2858 104.251 28.1612 103.074 28.2766 101.907C28.3921 100.739 28.7453 99.6056 29.3162 98.5702C29.887 97.5347 30.6642 96.618 31.6032 95.8723C32.5423 95.1267 33.6247 94.5669 34.7886 94.225L92.0738 77.3228L210.19 42.4828L267.475 25.5805C268.358 25.3209 269.275 25.1886 270.198 25.1877C272.179 25.192 274.107 25.8074 275.698 26.9437C277.29 28.08 278.462 29.6775 279.043 31.5023L303.161 107.419L303.544 108.61H304.829L304.452 107.419Z" fill="#3F3D56"/>
<path id="Vector_3" d="M102.769 100.068C101.578 100.068 100.419 99.6992 99.4621 99.0172C98.5049 98.3353 97.7997 97.3757 97.45 96.2793L89.4946 71.2403C89.2809 70.5677 89.2067 69.8611 89.2763 69.1609C89.346 68.4607 89.5581 67.7806 89.9006 67.1593C90.2431 66.5381 90.7092 65.988 91.2723 65.5404C91.8355 65.0928 92.4846 64.7565 93.1826 64.5507L201.848 32.4937C203.258 32.0792 204.78 32.2206 206.082 32.8868C207.384 33.553 208.358 34.6896 208.791 36.0472L216.746 61.0864C217.176 62.4448 217.029 63.912 216.338 65.1662C215.646 66.4203 214.467 67.359 213.058 67.7763L104.393 99.8333C103.866 99.9889 103.319 100.068 102.769 100.068V100.068Z" fill="#6C63FF"/>
<path id="Vector_4" d="M144.441 50.7508C151.264 50.7508 156.794 45.4216 156.794 38.8478C156.794 32.274 151.264 26.9448 144.441 26.9448C137.619 26.9448 132.089 32.274 132.089 38.8478C132.089 45.4216 137.619 50.7508 144.441 50.7508Z" fill="#6C63FF"/>
<path id="Vector_5" d="M144.441 46.3852C148.761 46.3852 152.263 43.0106 152.263 38.8479C152.263 34.6851 148.761 31.3105 144.441 31.3105C140.121 31.3105 136.619 34.6851 136.619 38.8479C136.619 43.0106 140.121 46.3852 144.441 46.3852Z" fill="white"/>
</g>
<g id="top">
<path id="Vector_6" d="M399.203 370.476H190.444C189.052 370.475 187.718 369.941 186.734 368.993C185.75 368.044 185.196 366.759 185.194 365.417V124.382C185.196 123.041 185.749 121.755 186.734 120.807C187.718 119.858 189.052 119.325 190.444 119.323H399.203C400.595 119.325 401.93 119.858 402.914 120.807C403.898 121.755 404.452 123.041 404.453 124.382V365.417C404.452 366.759 403.898 368.044 402.914 368.993C401.93 369.941 400.595 370.475 399.203 370.476V370.476Z" fill="#E6E6E6"/>
<path id="Vector_7" d="M303.162 107.42H173.151C170.368 107.424 167.699 108.491 165.731 110.388C163.763 112.285 162.655 114.856 162.651 117.538V360.24L163.887 359.877V117.538C163.89 115.171 164.867 112.902 166.603 111.229C168.34 109.555 170.695 108.614 173.151 108.611H303.545L303.162 107.42ZM416.498 107.42H173.151C170.368 107.424 167.699 108.491 165.731 110.388C163.763 112.285 162.655 114.856 162.651 117.538V390.116C162.655 392.798 163.763 395.37 165.731 397.266C167.699 399.163 170.368 400.23 173.151 400.234H416.498C419.281 400.23 421.949 399.163 423.918 397.266C425.886 395.37 426.993 392.798 426.997 390.116V117.538C426.993 114.856 425.886 112.285 423.918 110.388C421.949 108.491 419.281 107.424 416.498 107.42V107.42ZM425.762 390.116C425.759 392.483 424.782 394.752 423.045 396.425C421.308 398.099 418.954 399.041 416.498 399.043H173.151C170.695 399.041 168.34 398.099 166.603 396.425C164.867 394.752 163.89 392.483 163.887 390.116V117.538C163.89 115.171 164.867 112.902 166.603 111.229C168.34 109.555 170.695 108.614 173.151 108.611H416.498C418.954 108.614 421.308 109.555 423.045 111.229C424.782 112.902 425.759 115.171 425.762 117.538V390.116Z" fill="#3F3D56"/>
<path id="Vector_8" d="M351.646 133.607H238.002C236.528 133.605 235.115 133.04 234.073 132.036C233.031 131.032 232.445 129.671 232.443 128.25V102.064C232.445 100.644 233.031 99.2823 234.073 98.2781C235.115 97.274 236.528 96.7091 238.002 96.7075H351.646C353.12 96.7091 354.533 97.274 355.575 98.2781C356.617 99.2823 357.203 100.644 357.205 102.064V128.25C357.203 129.671 356.617 131.032 355.575 132.036C354.533 133.04 353.12 133.605 351.646 133.607V133.607Z" fill="#6C63FF"/>
<path id="Vector_9" d="M294.824 98.493C301.646 98.493 307.177 93.1638 307.177 86.59C307.177 80.0162 301.646 74.687 294.824 74.687C288.002 74.687 282.472 80.0162 282.472 86.59C282.472 93.1638 288.002 98.493 294.824 98.493Z" fill="#6C63FF"/>
<path id="Vector_10" d="M294.824 93.8399C298.979 93.8399 302.348 90.594 302.348 86.5899C302.348 82.5858 298.979 79.3398 294.824 79.3398C290.668 79.3398 287.3 82.5858 287.3 86.5899C287.3 90.594 290.668 93.8399 294.824 93.8399Z" fill="white"/>
</g>
</g>
</svg>
