<svg width="28" height="30" viewBox="0 0 28 30" fill="none" xmlns="http://www.w3.org/2000/svg">
<path d="M20.6687 2.13147C21.0131 1.77273 21.422 1.48816 21.8719 1.29402C22.3219 1.09987 22.8042 0.999939 23.2912 0.999939C23.7783 0.999939 24.2605 1.09987 24.7105 1.29402C25.1605 1.48816 25.5693 1.77273 25.9137 2.13147C26.2581 2.49021 26.5313 2.9161 26.7177 3.38482C26.9041 3.85354 27 4.3559 27 4.86324C27 5.37058 26.9041 5.87294 26.7177 6.34166C26.5313 6.81038 26.2581 7.23627 25.9137 7.59501L8.21187 26.0344L1 28.0833L2.96687 20.5709L20.6687 2.13147Z" stroke="#9C19E0" stroke-width="2" stroke-linecap="round" stroke-linejoin="round"/>
</svg>
