<svg width="638" height="439" viewBox="0 0 638 439" fill="none" xmlns="http://www.w3.org/2000/svg">
<g id="undraw_charts_re_5qe9 1" clip-path="url(#clip0_8_232)">
<path id="Vector" d="M87.5549 436.488C62.1843 429.88 39.7654 414.939 23.8919 394.06C8.01835 373.181 -0.390447 347.573 0.0134085 321.341C0.114031 314.805 0.800704 308.132 3.54614 302.201C6.29158 296.27 11.3912 291.14 17.7702 289.735C24.732 288.201 32.0782 291.336 37.2664 296.228C42.4545 301.12 45.8563 307.575 48.9861 313.984C67.8377 352.589 82.1607 394.013 87.5231 436.644L87.5549 436.488Z" fill="#F2F2F2"/>
<path id="Vector_2" d="M14.6119 291.023L27.8241 321.064L41.0363 351.105C45.2206 360.619 49.397 370.138 53.722 379.589C58.0089 388.957 62.4428 398.261 67.1729 407.414C71.8963 416.554 76.9164 425.545 82.3654 434.273C83.044 435.36 83.7292 436.443 84.4211 437.521C84.9 438.268 86.0969 437.575 85.6147 436.823C80.0611 428.16 74.9439 419.224 70.1444 410.122C65.3397 401.01 60.8491 391.736 56.5243 382.388C52.1764 372.989 47.9957 363.515 43.8261 354.036C39.4372 344.059 35.0491 334.082 30.6618 324.104L17.4496 294.063L15.8054 290.325C15.4478 289.512 14.2565 290.215 14.6118 291.023L14.6119 291.023Z" fill="white"/>
<path id="Vector_3" d="M82.0434 436.697C67.0888 440.12 51.4186 438.42 37.5449 431.868C23.6712 425.316 12.3973 414.293 5.53051 400.565C3.81962 397.144 2.37602 393.494 2.2014 389.673C2.02677 385.852 3.29054 381.811 6.22331 379.358C9.42399 376.681 14.0838 376.324 18.0971 377.462C22.1105 378.601 25.6178 381.033 28.9718 383.515C49.1735 398.465 67.7843 416.102 82.0689 436.787L82.0434 436.697Z" fill="#F2F2F2"/>
<path id="Vector_4" d="M4.93111 380.88L19.8948 392.908L34.8584 404.935C39.5975 408.744 44.3334 412.558 49.1285 416.296C53.8815 420.002 58.6932 423.634 63.6182 427.108C68.5363 430.578 73.568 433.889 78.7516 436.949C79.3972 437.33 80.045 437.707 80.6951 438.08C81.1452 438.338 81.5798 437.655 81.1265 437.395C75.9061 434.397 70.8386 431.14 65.8915 427.712C60.9389 424.279 56.1056 420.677 51.3384 416.992C46.5457 413.287 41.8193 409.498 37.0976 405.703C32.1275 401.709 27.1577 397.714 22.1883 393.719L7.22458 381.692L5.36244 380.195C4.95749 379.87 4.52865 380.557 4.93111 380.88V380.88Z" fill="white"/>
<path id="Vector_5" d="M632.222 0H230.226C228.694 0.00170106 227.226 0.611469 226.143 1.69551C225.059 2.77955 224.45 4.24933 224.448 5.78239V278.381C224.45 279.914 225.059 281.384 226.143 282.468C227.226 283.552 228.694 284.162 230.226 284.163H632.222C633.754 284.162 635.222 283.552 636.306 282.468C637.389 281.384 637.998 279.914 638 278.381V5.78239C637.998 4.24933 637.389 2.77955 636.306 1.69551C635.222 0.611469 633.754 0.00170106 632.222 0V0ZM636.349 278.381C636.349 279.476 635.914 280.526 635.14 281.301C634.366 282.075 633.316 282.511 632.222 282.511H230.226C229.132 282.511 228.082 282.075 227.308 281.301C226.535 280.526 226.1 279.476 226.099 278.381V5.78239C226.1 4.68711 226.535 3.63681 227.308 2.86233C228.082 2.08785 229.132 1.65255 230.226 1.65211H632.222C633.316 1.65255 634.366 2.08785 635.14 2.86233C635.914 3.63681 636.349 4.68711 636.349 5.78239V278.381Z" fill="#3F3D56"/>
<path id="Vector_6" d="M637.175 23.1626H225.274V24.8147H637.175V23.1626Z" fill="#3F3D56"/>
<path id="Vector_7" d="M239.306 17.3472C242.042 17.3472 244.259 15.1282 244.259 12.3908C244.259 9.65354 242.042 7.43451 239.306 7.43451C236.571 7.43451 234.354 9.65354 234.354 12.3908C234.354 15.1282 236.571 17.3472 239.306 17.3472Z" fill="#3F3D56"/>
<path id="Vector_8" d="M253.545 17.3472C256.281 17.3472 258.498 15.1282 258.498 12.3908C258.498 9.65354 256.281 7.43451 253.545 7.43451C250.81 7.43451 248.593 9.65354 248.593 12.3908C248.593 15.1282 250.81 17.3472 253.545 17.3472Z" fill="#3F3D56"/>
<path id="Vector_9" d="M267.785 17.3472C270.52 17.3472 272.737 15.1282 272.737 12.3908C272.737 9.65354 270.52 7.43451 267.785 7.43451C265.049 7.43451 262.832 9.65354 262.832 12.3908C262.832 15.1282 265.049 17.3472 267.785 17.3472Z" fill="#3F3D56"/>
<path id="Vector_10" d="M325.87 61.5412H256.532C255 61.5412 253.53 60.9319 252.446 59.8475C251.363 58.7631 250.754 57.2924 250.754 55.7588C250.754 54.2252 251.363 52.7544 252.446 51.67C253.53 50.5856 255 49.9764 256.532 49.9764H325.87C327.403 49.9764 328.872 50.5856 329.956 51.67C331.039 52.7544 331.648 54.2252 331.648 55.7588C331.648 57.2924 331.039 58.7631 329.956 59.8475C328.872 60.9319 327.403 61.5412 325.87 61.5412Z" fill="#CCCCCC"/>
<path id="Vector_11" d="M420.797 89.6271H256.532C255 89.6271 253.53 89.0179 252.446 87.9335C251.363 86.8491 250.754 85.3783 250.754 83.8447C250.754 82.3111 251.363 80.8403 252.446 79.7559C253.53 78.6715 255 78.0623 256.532 78.0623H420.797C422.33 78.0623 423.799 78.6715 424.883 79.7559C425.967 80.8403 426.575 82.3111 426.575 83.8447C426.575 85.3783 425.967 86.8491 424.883 87.9335C423.799 89.0179 422.33 89.6271 420.797 89.6271Z" fill="#CCCCCC"/>
<path id="Vector_12" d="M473.808 100.798C466.07 112.088 461.56 125.278 460.764 138.945C459.968 152.612 462.917 166.237 469.292 178.35C475.668 190.463 485.227 200.604 496.94 207.678C508.652 214.752 522.073 218.491 535.753 218.492V152.87L473.808 100.798Z" fill="#9C19E0"/>
<path id="Vector_13" d="M535.753 68.1496C523.553 68.1418 511.536 71.1111 500.742 76.8001C489.948 82.4891 480.703 90.7262 473.808 100.798L535.753 152.87V68.1496Z" fill="#CCCCCC"/>
<path id="Vector_14" d="M535.753 219.318H534.927V67.3236H535.753C555.894 67.3236 575.21 75.3304 589.452 89.5826C603.693 103.835 611.694 123.165 611.694 143.321C611.694 163.476 603.693 182.807 589.452 197.059C575.21 211.311 555.894 219.318 535.753 219.318ZM536.578 68.9801V217.661C556.137 217.444 574.821 209.516 588.575 195.598C602.329 181.68 610.043 162.895 610.043 143.321C610.043 123.746 602.329 104.962 588.575 91.0437C574.821 77.1258 556.137 69.1977 536.578 68.9801V68.9801Z" fill="#3F3D56"/>
<path id="Vector_15" d="M304.408 250.295H290.376C289.391 250.294 288.447 249.902 287.75 249.205C287.054 248.508 286.662 247.563 286.661 246.578V206.101C286.662 205.115 287.054 204.171 287.75 203.474C288.447 202.777 289.391 202.385 290.376 202.384H304.408C305.393 202.385 306.337 202.777 307.034 203.474C307.73 204.171 308.122 205.115 308.123 206.101V246.578C308.122 247.563 307.73 248.508 307.034 249.205C306.337 249.902 305.393 250.294 304.408 250.295V250.295Z" fill="#CCCCCC"/>
<path id="Vector_16" d="M345.681 250.295H331.648C330.663 250.294 329.719 249.902 329.023 249.205C328.326 248.508 327.935 247.563 327.934 246.578V187.102C327.935 186.116 328.326 185.171 329.023 184.474C329.719 183.778 330.663 183.386 331.648 183.384H345.681C346.666 183.386 347.61 183.778 348.306 184.474C349.003 185.171 349.394 186.116 349.395 187.102V246.578C349.394 247.563 349.003 248.508 348.306 249.205C347.61 249.902 346.666 250.294 345.681 250.295V250.295Z" fill="#FF6584"/>
<path id="Vector_17" d="M386.954 250.295H372.921C371.936 250.294 370.992 249.902 370.296 249.205C369.599 248.508 369.208 247.563 369.207 246.578V170.581C369.208 169.595 369.599 168.65 370.296 167.953C370.992 167.256 371.936 166.864 372.921 166.863H386.954C387.939 166.864 388.883 167.256 389.579 167.953C390.276 168.65 390.667 169.595 390.668 170.581V246.578C390.667 247.563 390.275 248.508 389.579 249.205C388.883 249.902 387.939 250.294 386.954 250.295V250.295Z" fill="#9C19E0"/>
<path id="Vector_18" d="M304.409 250.708H290.376C289.282 250.707 288.233 250.271 287.459 249.497C286.685 248.723 286.25 247.673 286.249 246.578V155.712C286.25 154.617 286.685 153.567 287.459 152.792C288.233 152.018 289.282 151.583 290.376 151.581H304.409C305.503 151.583 306.552 152.018 307.326 152.792C308.099 153.567 308.535 154.617 308.536 155.712V246.578C308.535 247.673 308.099 248.723 307.326 249.497C306.552 250.271 305.503 250.707 304.409 250.708V250.708ZM290.376 153.233C289.719 153.234 289.09 153.495 288.626 153.96C288.161 154.425 287.9 155.055 287.899 155.712V246.578C287.9 247.235 288.161 247.865 288.626 248.329C289.09 248.794 289.719 249.055 290.376 249.056H304.409C305.065 249.055 305.695 248.794 306.159 248.329C306.623 247.865 306.884 247.235 306.885 246.578V155.712C306.884 155.055 306.623 154.425 306.159 153.96C305.695 153.495 305.065 153.234 304.409 153.233H290.376Z" fill="#3F3D56"/>
<path id="Vector_19" d="M345.681 250.708H331.648C330.554 250.707 329.505 250.271 328.731 249.497C327.958 248.723 327.522 247.673 327.521 246.578V155.712C327.522 154.617 327.958 153.567 328.731 152.792C329.505 152.018 330.554 151.583 331.648 151.581H345.681C346.775 151.583 347.824 152.018 348.598 152.792C349.372 153.567 349.807 154.617 349.808 155.712V246.578C349.807 247.673 349.372 248.723 348.598 249.497C347.824 250.271 346.775 250.707 345.681 250.708V250.708ZM331.648 153.233C330.992 153.234 330.362 153.495 329.898 153.96C329.434 154.425 329.173 155.055 329.172 155.712V246.578C329.173 247.235 329.434 247.865 329.898 248.329C330.362 248.794 330.992 249.055 331.648 249.056H345.681C346.338 249.055 346.967 248.794 347.431 248.329C347.895 247.865 348.157 247.235 348.157 246.578V155.712C348.157 155.055 347.895 154.425 347.431 153.96C346.967 153.495 346.338 153.234 345.681 153.233H331.648Z" fill="#3F3D56"/>
<path id="Vector_20" d="M386.953 250.708H372.921C371.826 250.707 370.777 250.271 370.004 249.497C369.23 248.723 368.795 247.673 368.793 246.578V155.712C368.795 154.617 369.23 153.567 370.004 152.792C370.777 152.018 371.826 151.583 372.921 151.581H386.953C388.048 151.583 389.097 152.018 389.87 152.792C390.644 153.567 391.079 154.617 391.081 155.712V246.578C391.079 247.673 390.644 248.723 389.87 249.497C389.097 250.271 388.048 250.707 386.953 250.708V250.708ZM372.921 153.233C372.264 153.234 371.635 153.495 371.17 153.96C370.706 154.425 370.445 155.055 370.444 155.712V246.578C370.445 247.235 370.706 247.865 371.17 248.329C371.635 248.794 372.264 249.055 372.921 249.056H386.953C387.61 249.055 388.239 248.794 388.704 248.329C389.168 247.865 389.429 247.235 389.43 246.578V155.712C389.429 155.055 389.168 154.425 388.704 153.96C388.239 153.495 387.61 153.234 386.953 153.233H372.921Z" fill="#3F3D56"/>
<path id="Vector_21" d="M92.8067 296.556C93.1274 295.385 93.1877 294.158 92.9832 292.961C92.7786 291.764 92.3144 290.626 91.623 289.628C90.9316 288.63 90.03 287.796 88.9817 287.184C87.9333 286.573 86.7637 286.199 85.5552 286.088L78.4565 257.437L68.0669 268.715L76.4008 294.194C76.3502 296.238 77.0506 298.23 78.3692 299.791C79.6878 301.353 81.5331 302.376 83.5553 302.668C85.5776 302.959 87.6363 302.497 89.3414 301.371C91.0464 300.245 92.2794 298.532 92.8067 296.556H92.8067Z" fill="#FFB8B8"/>
<path id="Vector_22" d="M73.7745 287.744C73.293 287.543 72.8591 287.243 72.5011 286.863C72.143 286.483 71.8689 286.032 71.6965 285.539L59.8462 249.046C56.7844 240.28 57.0084 230.7 60.4766 222.087L71.8995 193.708C72.1564 192.155 72.7165 190.669 73.5478 189.333C74.3792 187.997 75.4655 186.838 76.7446 185.923C78.0237 185.008 79.4706 184.354 81.0025 183.998C82.5344 183.643 84.1213 183.593 85.6724 183.852C87.2236 184.11 88.7085 184.673 90.0424 185.506C91.3763 186.339 92.533 187.428 93.4463 188.709C94.3596 189.99 95.0116 191.439 95.3651 192.972C95.7185 194.505 95.7665 196.094 95.5063 197.645L79.7463 243.539L85.2628 280.909C85.3362 281.669 85.1745 282.434 84.7995 283.099C84.4245 283.765 83.8544 284.299 83.1662 284.629L76.803 287.668C76.1205 287.993 75.355 288.103 74.6086 287.982C74.3222 287.936 74.0422 287.856 73.7745 287.744V287.744Z" fill="#2F2E41"/>
<path id="Vector_23" d="M132.356 428.263L142.476 428.262L147.29 389.2L132.354 389.2L132.356 428.263Z" fill="#FFB8B8"/>
<path id="Vector_24" d="M161.993 437.666L130.187 437.667L130.187 425.37L149.704 425.369C152.963 425.369 156.088 426.664 158.393 428.97C160.698 431.276 161.993 434.404 161.993 437.666V437.666V437.666Z" fill="#2F2E41"/>
<path id="Vector_25" d="M82.0029 428.263L92.1229 428.262L96.937 389.2L82.0012 389.2L82.0029 428.263Z" fill="#FFB8B8"/>
<path id="Vector_26" d="M111.64 437.665L79.8348 437.667L79.8343 425.37L99.3512 425.369C102.61 425.369 105.736 426.664 108.041 428.97C110.345 431.276 111.64 434.404 111.64 437.665V437.665V437.665Z" fill="#2F2E41"/>
<path id="Vector_27" d="M135.122 269.056L144.018 339.589C145.241 349.286 146.096 359.018 146.585 368.787L148.981 416.755C149.004 417.202 148.935 417.649 148.779 418.069C148.624 418.489 148.384 418.873 148.076 419.197C147.767 419.522 147.396 419.78 146.985 419.956C146.574 420.133 146.131 420.224 145.684 420.224H132.182C131.392 420.224 130.629 419.941 130.03 419.425C129.431 418.91 129.036 418.197 128.918 417.416L116.775 337.36C116.717 336.974 116.524 336.621 116.23 336.364C115.936 336.107 115.561 335.962 115.171 335.956C114.781 335.949 114.401 336.081 114.099 336.328C113.797 336.575 113.592 336.921 113.52 337.304L98.8919 415.711C98.7472 416.416 98.3765 417.054 97.8363 417.529C97.296 418.003 96.6157 418.289 95.8986 418.341L83.4722 419.13C83.0108 419.164 82.5475 419.1 82.1123 418.944C81.6771 418.787 81.2797 418.54 80.9458 418.22C80.612 417.899 80.3491 417.512 80.1743 417.084C79.9995 416.655 79.9166 416.194 79.9311 415.732L83.9438 287.229L135.122 269.056Z" fill="#2F2E41"/>
<path id="Vector_28" d="M79.8164 288.881C84.7691 300.446 106.231 308.706 111.184 292.185C115.014 279.415 130.185 274.045 136.88 272.269C137.722 272.045 138.441 271.498 138.883 270.746C139.325 269.995 139.453 269.1 139.241 268.254L120.528 194.694C119.438 190.409 117.267 186.476 114.223 183.271C111.179 180.066 107.364 177.696 103.143 176.389C88.2692 171.779 72.5856 181.271 70.0677 196.644C69.3801 200.954 68.9419 205.301 68.7554 209.662C67.2033 242.118 76.5557 281.265 79.8164 288.881Z" fill="#9C19E0"/>
<path id="Vector_29" d="M147 288.86C146.879 287.652 146.494 286.485 145.873 285.441C145.252 284.398 144.41 283.503 143.407 282.821C142.403 282.138 141.262 281.684 140.064 281.49C138.866 281.297 137.64 281.368 136.473 281.7L119.557 257.517L113.913 271.779L130.842 292.557C131.529 294.483 132.898 296.089 134.689 297.072C136.481 298.055 138.57 298.346 140.562 297.891C142.554 297.435 144.309 296.264 145.496 294.599C146.682 292.935 147.217 290.893 147 288.86L147 288.86Z" fill="#FFB8B8"/>
<path id="Vector_30" d="M126.075 287.483C125.553 287.469 125.04 287.345 124.57 287.119C124.099 286.893 123.681 286.571 123.344 286.173L99.1769 256.382C93.1711 249.303 89.939 240.283 90.0817 230.998L90.5475 200.407C90.2304 198.866 90.2197 197.278 90.5162 195.733C90.8127 194.188 91.4104 192.717 92.2753 191.403C93.1402 190.089 94.2552 188.959 95.5568 188.077C96.8583 187.194 98.3208 186.577 99.8606 186.261C101.401 185.944 102.988 185.935 104.531 186.232C106.075 186.53 107.545 187.129 108.857 187.995C110.169 188.862 111.298 189.978 112.179 191.281C113.06 192.584 113.675 194.048 113.991 195.589L115.769 244.085L134.34 276.972C134.682 277.655 134.805 278.427 134.694 279.183C134.583 279.939 134.243 280.642 133.72 281.198L128.873 286.323C128.353 286.872 127.678 287.25 126.938 287.405C126.655 287.465 126.365 287.491 126.075 287.483V287.483Z" fill="#2F2E41"/>
<g id="head">
<path id="Vector_31" d="M95.708 168.591C106.905 168.591 115.982 159.507 115.982 148.302C115.982 137.097 106.905 128.013 95.708 128.013C84.511 128.013 75.4341 137.097 75.4341 148.302C75.4341 159.507 84.511 168.591 95.708 168.591Z" fill="#FFB8B8"/>
<path id="Vector_32" d="M80.3195 164.897C80.7562 165.156 81.2465 165.311 81.7526 165.35C82.2587 165.389 82.767 165.311 83.2381 165.122C83.7091 164.932 84.1304 164.637 84.4693 164.259C84.8081 163.881 85.0554 163.43 85.192 162.94L85.2033 162.894C85.5713 161.354 85.2657 159.746 85.1601 158.167C85.0545 156.587 85.2091 154.852 86.2842 153.69C88.2884 151.525 91.854 152.673 94.752 152.125C96.4495 151.746 97.9508 150.761 98.9749 149.354C99.9989 147.947 100.476 146.215 100.316 144.482C100.274 144.153 100.21 143.825 100.137 143.496C99.9558 142.664 99.9698 141.801 100.178 140.975C100.386 140.149 100.783 139.382 101.337 138.735C101.891 138.088 102.587 137.579 103.371 137.247C104.155 136.914 105.005 136.769 105.855 136.82C108.784 136.988 111.945 137.876 114.368 135.705C115.257 134.849 115.873 133.75 116.141 132.545C116.41 131.34 116.317 130.083 115.876 128.93C114.492 124.934 110.582 122.841 106.712 121.691C101.926 120.307 96.8915 120.008 91.9753 120.815C87.0591 121.623 82.3844 123.516 78.2912 126.358C75.8469 128.082 73.5641 130.249 72.5223 133.054C71.4805 135.859 71.9831 139.398 74.3324 141.25C72.5114 143.179 71.2291 145.554 70.6139 148.135C69.9987 150.717 70.0723 153.415 70.8273 155.959C71.9877 159.701 77.5254 163.288 80.3195 164.897Z" fill="#2F2E41"/>
</g>
<path id="Vector_33" d="M227.913 439H9.16774C8.94881 439 8.73886 438.913 8.58405 438.758C8.42925 438.603 8.34229 438.393 8.34229 438.174C8.34229 437.955 8.42925 437.745 8.58405 437.59C8.73886 437.435 8.94881 437.348 9.16774 437.348H227.913C228.132 437.348 228.342 437.435 228.496 437.59C228.651 437.745 228.738 437.955 228.738 438.174C228.738 438.393 228.651 438.603 228.496 438.758C228.342 438.913 228.132 439 227.913 439Z" fill="#3F3D56"/>
</g>
<defs>
<clipPath id="clip0_8_232">
<rect width="638" height="439" fill="white"/>
</clipPath>
</defs>
</svg>
