<svg width="21" height="22" viewBox="0 0 21 22" fill="none" xmlns="http://www.w3.org/2000/svg">
<path d="M8.58936 11.881C8.99965 12.4524 9.52311 12.9252 10.1242 13.2673C10.7254 13.6094 11.3901 13.8128 12.0733 13.8638C12.7566 13.9148 13.4423 13.8121 14.0841 13.5627C14.7259 13.3133 15.3087 12.9231 15.793 12.4185L18.6592 9.43286C19.5293 8.49438 20.0108 7.23744 19.9999 5.93275C19.989 4.62806 19.4867 3.38002 18.601 2.45743C17.7153 1.53484 16.5172 1.01153 15.2647 1.00019C14.0122 0.988851 12.8055 1.4904 11.9046 2.39682L10.2613 4.09861" stroke="#9C19E0" stroke-width="2" stroke-linecap="round" stroke-linejoin="round"/>
<path d="M12.4108 9.89068C12.0005 9.31931 11.477 8.84654 10.8759 8.50443C10.2747 8.16232 9.61002 7.95889 8.92678 7.90792C8.24354 7.85694 7.55777 7.95963 6.91598 8.20901C6.27419 8.4584 5.69139 8.84864 5.20711 9.35327L2.34095 12.3389C1.47079 13.2773 0.989297 14.5343 1.00018 15.839C1.01106 17.1437 1.51345 18.3917 2.39914 19.3143C3.28482 20.2369 4.48294 20.7602 5.73544 20.7715C6.98794 20.7829 8.19461 20.2813 9.09555 19.3749L10.7293 17.6731" stroke="#9C19E0" stroke-width="2" stroke-linecap="round" stroke-linejoin="round"/>
</svg>
